{"title":"Crude Impact [2006] DVDRip XviD","uid":8516629,"size":1564633376,"categoryP":"video","categoryS":"movies","magnet":"?xt=urn:btih:c4b0251a502d546ac25569a409512027b9474239&amp;dn=Crude+Impact+%5B2006%5D+DVDRip+XviD&amp;tr=udp%3A%2F%2Ftracker.openbittorrent.com%3A80&amp;tr=udp%3A%2F%2Fopen.demonii.com%3A1337&amp;tr=udp%3A%2F%2Ftracker.coppersurfer.tk%3A6969&amp;tr=udp%3A%2F%2Fexodus.desync.com%3A6969","seeders":2,"leechers":1,"uploader":"rpessoa","files":2,"time":1369760513,"description":"An examination of the interconnection of human domination of the planet and the use of petroleum, and offers solutions for how we can stop our progression down this destructive path.\n &lt;a href=&quot;\nhttp://www.imdb.com/title/tt0932519/&quot; rel=&quot;nofollow&quot; target=&quot;_NEW&quot;&gt;\nhttp://www.imdb.com/title/tt0932519/&lt;/a&gt;\n\nGeneral \nComplete name : Crude Impact [2006].avi \nFormat : AVI \nFormat/Info : Audio Video Interleave \nFile size : 1.46 GiB \nDuration : 1h 37mn \nOverall bit rate : 2 130 Kbps \nWriting application : VirtualDubMod 1.5.10.2 (build 2540/release) \nWriting library : VirtualDubMod build 2540/release \n\nVideo \nID : 0 \nFormat : MPEG-4 Visual \nFormat profile : Advanced Simple@L5 \nFormat settings, BVOP : 2 \nFormat settings, QPel : No \nFormat settings, GMC : No warppoints \nFormat settings, Matrix : Default (H.263) \nCodec ID : XVID \nCodec ID/Hint : XviD \nDuration : 1h 37mn \nBit rate : 1 931 Kbps \nWidth : 704 pixels \nHeight : 384 pixels \nDisplay aspect ratio : 1.85:1 \nFrame rate : 23.976 fps \nColor space : YUV \nChroma subsampling : 4:2:0 \nBit depth : 8 bits \nScan type : Progressive \nCompression mode : Lossy \nBits/(Pixel*Frame) : 0.298 \nStream size : 1.32 GiB (91%) \nWriting library : XviD 1.1.2 (UTC 2006-11-01) \n\nAudio \nID : 1 \nFormat : AC-3 \nFormat/Info : Audio Coding 3 \nMode extension : CM (complete main) \nFormat settings, Endianness : Big \nCodec ID : 2000 \nDuration : 1h 37mn \nBit rate mode : Constant \nBit rate : 192 Kbps \nChannel(s) : 2 channels \nChannel positions : Front: L R \nSampling rate : 48.0 KHz \nBit depth : 16 bits \nCompression mode : Lossy \nStream size : 135 MiB (9%) \nAlignment : Split accross interleaves \nInterleave, duration : 80 ms (1.92 video frames) \nInterleave, preload duration : 80 ms \n\n","torrent":{"xt":"urn:btih:c4b0251a502d546ac25569a409512027b9474239","amp;dn":"Crude+Impact+%5B2006%5D+DVDRip+XviD","amp;tr":["udp%3A%2F%2Ftracker.openbittorrent.com%3A80","udp%3A%2F%2Fopen.demonii.com%3A1337","udp%3A%2F%2Ftracker.coppersurfer.tk%3A6969","udp%3A%2F%2Fexodus.desync.com%3A6969"],"infoHash":"c4b0251a502d546ac25569a409512027b9474239","infoHashBuffer":{"type":"Buffer","data":[196,176,37,26,80,45,84,106,194,85,105,164,9,81,32,39,185,71,66,57]},"announce":[],"urlList":[]}}